<?xml version="1.0" encoding="UTF-8" standalone="no"?>
<!-- Created with Inkscape (http://www.inkscape.org/) -->

<svg
   width="32mm"
   height="32mm"
   viewBox="0 0 32.000001 31.999999"
   version="1.1"
   id="svg5"
   inkscape:version="1.2.2 (732a01da63, 2022-12-09)"
   sodipodi:docname="dug.svg"
   inkscape:export-filename="..\dug.png"
   inkscape:export-xdpi="50.799999"
   inkscape:export-ydpi="50.799999"
   xmlns:inkscape="http://www.inkscape.org/namespaces/inkscape"
   xmlns:sodipodi="http://sodipodi.sourceforge.net/DTD/sodipodi-0.dtd"
   xmlns="http://www.w3.org/2000/svg"
   xmlns:svg="http://www.w3.org/2000/svg"
   xmlns:rdf="http://www.w3.org/1999/02/22-rdf-syntax-ns#"
   xmlns:cc="http://creativecommons.org/ns#">
  <sodipodi:namedview
     id="namedview7"
     pagecolor="#ffffff"
     bordercolor="#000000"
     borderopacity="0.25"
     inkscape:showpageshadow="2"
     inkscape:pageopacity="0.0"
     inkscape:pagecheckerboard="0"
     inkscape:deskcolor="#d1d1d1"
     inkscape:document-units="mm"
     showgrid="false"
     inkscape:zoom="2.6809733"
     inkscape:cx="-5.2219841"
     inkscape:cy="80.754254"
     inkscape:window-width="1920"
     inkscape:window-height="991"
     inkscape:window-x="-9"
     inkscape:window-y="-9"
     inkscape:window-maximized="1"
     inkscape:current-layer="layer1" />
  <defs
     id="defs2" />
  <g
     inkscape:label="Calque 1"
     inkscape:groupmode="layer"
     id="layer1">
    <path
       style="fill:#171702;fill-opacity:0.16000003;stroke:#494903;stroke-width:1.963;stroke-linejoin:round;stroke-opacity:0.16;stroke-dasharray:none;stroke-linecap:square"
       d="m 4.9544457,14.071072 c -0.077202,-1.237357 0.032629,-2.451898 0.2200996,-3.657973 0.012061,-0.0776 -0.032811,-0.165636 0,-0.235997 0.1220797,-0.261798 1.0690253,-1.0001628 1.3205972,-1.1799917 0.2180149,0.011718 0.052048,-0.1738075 0.1100494,-0.2359975 0.058002,-0.062186 0.1778974,-0.042578 0.2200996,-0.118 0.3374809,-0.6030971 -0.1761123,-2.2891473 0.2200994,-2.7139792 0.02594,-0.027813 0.084111,0.027813 0.1100495,0 C 7.2134419,5.8669424 7.2232883,5.7685531 7.2654898,5.6931353 7.5213688,5.2358665 7.716203,5.0946854 8.1458891,4.7491424 8.4833083,4.4777981 9.0668288,4.3516751 9.3564365,4.0411479 9.4144376,3.9789568 9.4084851,3.8673406 9.4664866,3.8051495 9.7298798,3.5227304 10.256945,3.4367767 10.566985,3.2151541 c 0.91499,-0.6540565 1.946629,-1.4781685 3.081392,-1.6519874 0.145259,-0.022249 0.295462,0.025865 0.4402,0 0.08091,-0.01446 0.146732,-0.078666 0.220099,-0.1179988 0.183416,-0.039334 0.363615,-0.1046587 0.550249,-0.1179987 1.153548,-0.082458 2.813351,-0.1282804 3.961792,0.1179987 0.362893,0.077821 0.750464,0.2914444 1.100498,0.3539972 0.144736,0.025865 0.299111,-0.043222 0.440199,0 1.300906,0.398536 -0.952305,0.1356547 0.880398,0.3539974 0.558666,0.066558 1.093045,0.1164013 1.650746,0.2359983 0.353125,0.075726 0.744939,-0.063541 1.100498,0 0.450272,0.080466 0.748958,0.28353 1.100498,0.4719963 0.03281,0.017589 0.0897,-0.032728 0.110051,0 0.06434,0.1034918 0.05818,0.2427467 0.11005,0.3539974 0.245277,0.5259884 0.743275,1.0638736 0.880399,1.6519874 0.0178,0.076317 -0.03281,0.1656371 0,0.2359984 0.230102,0.4934453 0.889709,0.8679734 1.210548,1.2979899 0.13362,0.1790917 0.152175,0.4627756 0.330149,0.5899958 0.06104,0.043636 0.168221,-0.055626 0.220098,0 0.126694,0.1358439 0.126405,0.5572977 0.2201,0.7079943 0.05755,0.092568 0.162547,0.1434317 0.2201,0.2359987 0.268812,0.4323421 0.671212,1.7636433 0.770349,2.241983 0.138066,0.666173 0.007,1.343224 0.11005,2.005985 0.03669,0.118 0.07336,0.235998 0.110051,0.353996 0.03669,0.03934 0.09365,0.06522 0.11005,0.118 0.169295,0.544571 -0.08951,2.160149 0,2.831979 0.05855,0.439473 0.151987,0.859798 0.2201,1.297989 0.03498,0.225075 -0.05152,0.487044 0,0.707995 0.04952,0.212403 0.164178,0.410117 0.220097,0.589996 0.02319,0.07463 -0.01779,0.159681 0,0.235998 0.177698,0.762124 0.405822,1.609621 0.660301,2.359982 0.275857,0.813411 0.765314,1.791579 0.550247,2.713979 -0.04966,0.212964 -0.860804,1.311734 -0.990448,1.41599 -0.171118,0.137609 -0.37913,0.216388 -0.550247,0.353998 -0.315315,0.253569 -0.572378,0.561776 -0.880398,0.825993 -0.06405,0.05494 -0.162099,0.05581 -0.2201,0.118 -0.058,0.06219 -0.04181,0.187212 -0.110051,0.235999 -0.06104,0.04363 -0.159055,-0.04364 -0.2201,0 -0.06824,0.04878 -0.05205,0.173806 -0.11005,0.235998 -0.173739,0.186286 -0.463317,0.227271 -0.660298,0.353996 -0.17794,0.114473 -0.262259,0.357522 -0.440199,0.471997 -0.09947,0.06399 -0.239567,0.04029 -0.33015,0.118 -0.103282,0.08859 -0.114289,0.268907 -0.2201,0.353999 -0.07317,0.05884 -0.507469,0.07212 -0.660299,0.235996 -0.09352,0.100281 -0.126574,0.253718 -0.220099,0.353998 -0.23948,0.25678 -0.640918,0.451217 -0.880398,0.707994 -0.185259,0.198641 -0.181688,0.423688 -0.4402,0.589997 -0.09947,0.06399 -0.226392,0.06238 -0.330148,0.118 -0.279588,0.149891 -0.578809,0.46873 -0.880398,0.589994 -0.17514,0.07042 -0.371472,0.05902 -0.55025,0.118 -0.299561,0.09883 -0.570812,0.301584 -0.880397,0.353997 -0.57975,0.09815 -1.178397,0.07805 -1.760797,0 -0.146572,-0.01964 -0.403676,-0.216352 -0.550249,-0.235998 -0.2184,-0.02926 -0.444473,0.04628 -0.660299,0 -0.341249,-0.07319 -0.649198,-0.280816 -0.990447,-0.353998 -0.215826,-0.04628 -0.442412,0.03337 -0.660299,0 -0.663653,-0.177898 -0.901576,-0.268336 -1.540697,-0.353996 -0.38499,-0.05161 -0.821695,0 -1.210548,0 -0.300572,0 -0.693929,-0.06358 -0.990448,0 -0.361392,0.07749 -0.614356,0.296388 -0.990447,0.353996 -0.440444,0.06747 -1.564283,0 -1.760797,0 -0.0265,0 -0.5938648,0.03562 -0.6602977,0 -0.0928,-0.04975 -0.127298,-0.186247 -0.2201,-0.236 -0.065624,-0.03518 -0.1590554,0.04364 -0.2200996,0 -0.1288681,-0.09211 -0.5966545,-1.127384 -0.6602986,-1.297987 -0.027247,-0.07304 0.032811,-0.165639 0,-0.235999 C 8.6141112,28.409061 8.448015,28.28887 8.3659887,28.112965 8.0405779,27.415132 8.7626193,28.365341 8.2559392,27.64097 8.1314322,27.462968 7.9085423,27.367983 7.8157399,27.168972 c -0.03281,-0.07036 0.027247,-0.162956 0,-0.235998 C 7.6212431,26.41161 7.2766753,26.236972 6.9353418,25.870982 6.2228912,25.107069 7.2865302,25.93623 6.3850929,25.162989 6.1287568,24.943106 5.7649603,24.877035 5.5046948,24.690991 c -0.030522,-0.02182 0.020349,-0.08527 0,-0.118 -0.083471,-0.13425 -0.4019146,-0.418979 -0.5502488,-0.471996 -0.069602,-0.02487 -0.1590549,0.04363 -0.2200997,0 C 4.6660969,24.052212 4.6735124,23.935357 4.6242968,23.864996 4.3237537,23.435329 3.8652794,23.169154 3.5237987,22.803006 3.4657971,22.740815 3.47175,22.629199 3.4137488,22.567007 3.3557473,22.504817 3.2516506,22.5112 3.1936492,22.449009 3.1356478,22.386817 3.132815,22.283372 3.0835994,22.213011 2.8259594,21.844676 2.4671231,21.763979 2.3132509,21.269017 1.8669426,19.354829 2.5530967,22.072805 1.9831015,20.443024 1.7925254,19.898111 1.7847712,19.2384 1.6529524,18.673037 1.6050404,18.467547 1.4715945,18.290743 1.4328527,18.083042 1.3099214,17.423987 1.1917471,16.425673 1.3228029,15.72306 c 0.051262,-0.274821 0.2956512,-0.383343 0.4401993,-0.589995 0.1948122,-0.278513 -0.3014453,0.05814 0.1100494,-0.235999 0.036857,-0.02634 0.392203,-0.341131 0.440199,-0.353998 0.1067643,-0.02862 0.225747,0.03732 0.3301495,0 0.0348,-0.01243 -0.02594,-0.09019 0,-0.118 0.02594,-0.02781 0.07724,0.01759 0.1100494,0 0.046401,-0.02487 0.060834,-0.100411 0.1100495,-0.118 0.1980897,-0.07079 0.4622093,0.0708 0.660299,0 0.1556339,-0.05562 0.2810446,-0.193336 0.440199,-0.235998 0.092929,-0.02491 0.3439936,0.05158 0.4401989,0 0.2345867,-0.125766 0.00245,-0.411679 0.1100495,-0.353998 0.1640525,0.08795 0.2934661,0.235999 0.4401993,0.353998 z"
       id="path1154" />
  </g>
  <metadata
     id="metadata9">
    <rdf:RDF>
      <cc:Work
         rdf:about="">
        <cc:license
           rdf:resource="http://creativecommons.org/licenses/by-nc/4.0/" />
      </cc:Work>
      <cc:License
         rdf:about="http://creativecommons.org/licenses/by-nc/4.0/">
        <cc:permits
           rdf:resource="http://creativecommons.org/ns#Reproduction" />
        <cc:permits
           rdf:resource="http://creativecommons.org/ns#Distribution" />
        <cc:requires
           rdf:resource="http://creativecommons.org/ns#Notice" />
        <cc:requires
           rdf:resource="http://creativecommons.org/ns#Attribution" />
        <cc:prohibits
           rdf:resource="http://creativecommons.org/ns#CommercialUse" />
        <cc:permits
           rdf:resource="http://creativecommons.org/ns#DerivativeWorks" />
      </cc:License>
    </rdf:RDF>
  </metadata>
</svg>
